<svg width="24" height="24" viewBox="0 0 24 24" fill="none" xmlns="http://www.w3.org/2000/svg">
<path fill-rule="evenodd" clip-rule="evenodd" d="M3 8.97831C3 6.24655 5.16494 4 7.87453 4C9.28971 4 10.5168 4.74855 11.3676 5.76904C11.6045 6.0533 11.8168 6.36357 11.9997 6.69262C12.1825 6.36365 12.3946 6.05344 12.6314 5.76922C13.4816 4.74863 14.7083 4 16.1236 4C18.8332 4 20.9981 6.24655 20.9981 8.97831C20.9981 11.4006 19.4893 13.5485 17.7652 15.3159C16.4435 16.6709 14.8908 17.902 13.5947 18.9297C13.1917 19.2493 12.8134 19.5491 12.4747 19.827C12.1981 20.0538 11.8 20.0538 11.5234 19.827C11.1847 19.5491 10.8064 19.2493 10.4034 18.9297C9.10728 17.902 7.55461 16.6709 6.23286 15.3159C4.50876 13.5485 3 11.4006 3 8.97831ZM12.75 9.5H11.25C11.25 8.52096 10.8583 7.50072 10.2154 6.72954C9.5729 5.95883 8.73726 5.5 7.87453 5.5C6.02829 5.5 4.5 7.03961 4.5 8.97831C4.5 10.7843 5.64272 12.5628 7.30662 14.2685C8.5544 15.5477 9.99519 16.6905 11.2792 17.7089C11.5257 17.9044 11.7665 18.0954 11.9991 18.2819C12.2316 18.0954 12.4724 17.9044 12.7189 17.7089C14.0029 16.6905 15.4437 15.5477 16.6915 14.2685C18.3554 12.5628 19.4981 10.7843 19.4981 8.97831C19.4981 7.03961 17.9698 5.5 16.1236 5.5C15.2609 5.5 14.4258 5.95875 13.7838 6.72936C13.1414 7.50047 12.75 8.52075 12.75 9.5Z" fill="#E8E9EA"/>
</svg>
