<svg width="24" height="24" viewBox="0 0 24 24" fill="none" xmlns="http://www.w3.org/2000/svg">
<path fill-rule="evenodd" clip-rule="evenodd" d="M17.3266 18.6244C19.2617 17.0664 20.5 14.6778 20.5 12C20.5 7.30558 16.6944 3.5 12 3.5C7.30558 3.5 3.5 7.30558 3.5 12C3.5 14.6778 4.73826 17.0664 6.67343 18.6244C7.2842 16.2525 9.43744 14.5 12 14.5C14.5626 14.5 16.7158 16.2525 17.3266 18.6244ZM15.9712 19.5172C15.7328 17.5357 14.0457 16 12 16C9.95426 16 8.26721 17.5357 8.02884 19.5172C9.21409 20.1447 10.5655 20.5 12 20.5C13.4345 20.5 14.7859 20.1447 15.9712 19.5172ZM12 22C17.5228 22 22 17.5228 22 12C22 6.47715 17.5228 2 12 2C6.47715 2 2 6.47715 2 12C2 17.5228 6.47715 22 12 22ZM12 11.5C12.8284 11.5 13.5 10.8284 13.5 10C13.5 9.17157 12.8284 8.5 12 8.5C11.1716 8.5 10.5 9.17157 10.5 10C10.5 10.8284 11.1716 11.5 12 11.5ZM12 13C13.6569 13 15 11.6569 15 10C15 8.34315 13.6569 7 12 7C10.3431 7 9 8.34315 9 10C9 11.6569 10.3431 13 12 13Z" fill="#E8E9EA"/>
</svg>
